<svg xmlns="http://www.w3.org/2000/svg" id="Capa_2" data-name="Capa 2" viewBox="0 0 88.88 138.65"><defs><style> .cls-1 { fill: #002152; } </style></defs><g id="Capa_2-2" data-name="Capa 2"><g><path class="cls-1" d="M84.56,137.24c-.09.54-.56,1.06-1.09,1.2-.41-1.08-.02-2.14,0-3.15.42-19.4,1.21-39.19.87-58.65-.36-21.05-3.05-39.31-17.87-55.36-4.02-4.35-12.47-11.88-17.56-14.7-.77-.43-2.92-.38-2.29-1.21l1.75-.21c-.42-.69-1.59-2.62-2.61-1.97-.29.19-1.3,1.38-1.74,1.75-10,8.3-18.94,15.26-26.25,26.28-2.31,3.49-3.55,6.49-5.31,10.16-.16.33-.65.69-.68.86-.05.33.66.5.18,1.65-4.35,10.42-5.3,21.26-5.85,32.55-.1,2.08-.67,4.32-.02,6.33l-.37.12.17.49-.43.79c.53.15.62-.53.75-.88,2.4-6.38,4.45-13.69,8.15-19.31,2.36-3.6,5.64-8.77,10.78-7.01.43.15,2.99,1.41,3.21,1.64s.72,1.25.78,1.58c.22,1.29.41,2.53.68,3.88.31,1.57-.01,3.75,1.79,4.53.29,1-.52.78-.79,1.03-1.67,1.61-2.67,5.27-4.88,6.13-.37.14-1.18-.16-1.62.56-.09,5.5,3.59,10.39,5.56,15.37l-.43.32c3.81-1.01,8.3-4.01,12.32-3.5.48.06.75.32,1.18.47l-.21.63c1.23.23,2.55-.2,3.77.05,1.37.28,4.13,1.84,5.68,2.39.66.24,1.06.18,1.64.31,1.14.26,3.84,1.12,4.91.93.05,0,.77-.53.8-.57.12-.2.63-1.47.76-1.81,1.42-3.73,2.37-7.75,3.89-11.59.23-.57,1.27-1.89.78-2.35-.97.15-3.59-.43-4.24-1.09-1.08-1.11-1.57-5.08-3.58-6,.36-.83,1.11-1.24,1.4-2.08.41-1.17.17-2.26.38-3.33.17-.88.77-.86.33-2.17-.12-.36-.59-.52-.52-.83,2.19-2.68,6.1-4.9,9.57-3.21.31.15.33.5.54.6,1.72.78,3.54.98,4.36,3s.55,5.87-.22,7.97c-.29.78-1.55,2.7-1.48,3.31,2.69,3.69,5.23,7.43,6.09,12.01s.3,8.95.45,13.73c.17,5.42.58,10.92.86,16.33.04.87.56,2.71.46,3.46-.02.14-.36.14-.37.18-.1.37-.03,1.57-.28,1.8-1.11.32-2.33.85-3.5.56.35,1.8-.16,3.93-.23,5.77-.07,1.96.1,3.94.02,5.9-.03.69-.29,4.01-.53,4.4-.4.63-1.32,1.1-2.09.93.08-.26.24-.47.24-.76-.03-2.49-.1-5.14-.03-7.63s.47-4.93.22-7.41l.66-.75c-1.81-.35-3.73.07-5.56.18l-.32-.4-.14.44h-4.22s.06,7.29.06,7.29c.04,2.14.75,6.58,0,8.34l-.93.93c.03-.63.17-.96-.43-1.25-.99-5.11-.55-10.36-1.11-15.54-.65.08-2.31-.58-2.81-1s-.62-2.35-.64-3.06c-.13-3.98.67-7.97.84-11.96.02-.54.08-1.11-.1-1.64-.23-.47-1.98-.82-2.59-1.11-1.34-.63-2.62-1.56-3.91-2.19-1.66-.82-3.67-1.03-4.94-2.47l.45-.22c-.22-.25-.3-1.19-.43-1.32-.24-.24-.56-.23-.82-.39-.14-.09-.15-.4-.44-.53-1.52-.65-3.79-.75-5.32-1.23-.45-.14-.38-.53-.55-.55-.32-.05-1.45.08-1.83.1-.87,1.64-2.51,2.16-3.91,3.07-1.76,1.15-3.42,2.44-5.48,3.07-.05,3.78.12,7.52.47,11.29.64,6.8,1.67,13.66,2.4,20.47.23,2.14,1,4.04.63,6.24l-.84-.04c-.4-.98-.91-1.78-1.19-2.84-1.76-6.75-1.93-14.62-2.77-21.64-.48-4.03-1.1-8.06-1.71-12.02-.04-.28.16-.59.09-.96-.22-1.14-1.09-.98-1.74-1.54-1.22-1.05-2.59-3.8-3.18-5.32-.33-.84-2.03-6.3-1.94-6.75.07-.34.55-.39.85-.34.04.02-.14.3-.09.45,1.05,2.84,2.59,7.14,4.45,9.47,2.43,3.05,4.31,1.61,7.17-.02,4.14-2.37,6.23-4.17,10.87-5.7.28-.09.64-.12.7-.49l-.99.19c-.35-.79-4.18.14-4.94.47-.3.13-.29.55-.5.65l-.54-.43c.02.16.02.35-.16.43-1.03.4-2.46.61-3.66,1.09-1.1.45-3.22,2.04-4.3,1.48-.97-.5-1.81-5.01-2.23-6.27-.55-1.65-2.02-6.39-3.22-7.26-.34-.24-1.68-1.03-2.01-1.03-.38,1.75-.6,3.57-1,5.32-.48,2.09-1.4,4.51-1.67,6.63-.32,2.57-.12,5.61-.26,8.22-.08,1.53-.38,3.19-.22,4.67-.75-.25-.79.29-1.05.41-1.1.53-1.4.25-2.05,1.62-1.19,2.53-2.04,7.43-2.95,10.35-1.84,5.91-3.74,12-6,17.76-.18.46-.36,1.29-1,.97-.1-.05.1-.46-.25-.37.09,1.3-.59,1.08-1.09,1.86l.43.1-.43.44.22.65-.87.22c-.38-.55.02-1.47-.04-1.86-.02-.14-.32-.09-.35-.21-.41-2.23-.28-3.22-.14-5.38.5-8.07.93-16.38.96-24.49,0-.74.14-3.17-.1-3.61-.09-.16-.47-.04-.66-.19-.37-.29-1.19-1.32-1.32-1.74-.47-1.56,1.07-5.1,1.46-6.86,1.12-5.09.52-9.49.41-14.63-.15-7.53.04-16.68,1.11-24.16,1.37-9.6,6.55-20.38,11.96-28.37,4.04-5.96,9.24-11.07,14.61-15.69,4.47-3.85,9.51-7.04,13.67-11.22,2.03-.93,2.92,1.03,4.22,2.05s2.93,1.72,4.23,2.74c.35-.22-.07-.48-.22-.65-.46-.56-1.06-1.12-1.85-1.09l.11-.43c1.64.36,2.3,1.51,3.49,2.39,10.84,8.01,23.39,19.74,29.14,32.11,7.97,17.18,6.51,37.13,6.07,55.62-.35,14.3-1.3,28.52-1.43,42.83-1.04.28-.01,1.73-1.42,1.42l-.65-4.69c-.23-.09-.43.72-.43.76,0,1.11.17,2.94,0,3.92ZM13.64,35.04l4.22-7.11c-1.78,1.86-4.03,4.97-4.91,7.4-.07.21-.29.71.12.66-.1-.59.44-.76.57-.95ZM82.81,49.94c-.04-2.28-.78-4.48-1.58-6.6-1.4-3.72-4.8-11.35-7.47-14.11-.27-.28-.54-.71-.98-.65l5.2,8.63c1.85,4.01,3.61,8.02,4.39,12.4.06.36-.14.37.43.33ZM7.62,43.62c-.47-.09-.51.21-.67.53-.93,1.87-2.07,5.63-2.54,7.71-.15.67-.55,2.1-.17,2.66.18-1.2.79-2.33,1.1-3.47.61-2.24,1.02-4.08,1.73-6.33.12-.39.4-.71.54-1.09ZM86.52,52.99c-.41-.02-.45-.1-.44.33.03,2.1.66,4.77.87,6.98.15,1.65.11,3.36.26,4.97.16,1.74.36,3.97.66,5.66.05.26.05,1.01.4,1.01-.34-6.35-.61-12.7-1.74-18.96ZM2.82,86.99c.48-2.12.15-4.26.21-6.44.11-4.12.4-8.28.22-12.42l1.1-11.22c-.28.1-.52.98-.59,1.26-.91,3.63-.79,8.76-.94,12.57-.19,4.82-.39,9.55-.22,14.4l.22,1.84ZM25.27,59.75c-.86.21-2.4-.5-2.94-.44-.19.02-1.46,1-1.65,1.19-.62.65-3.2,5.79-3.74,6.95-1.87,3.99-3.14,8.36-4.43,12.57-1.74,5.67-3.33,11.39-4.47,17.22-.57.57-.44-1.14-.41-1.39,1.16-8.94,5.74-21.72,9.54-29.92.83-1.8,1.46-3.85,2.65-5.42-.27-.38-.46.09-.62.26-2.06,2.29-3.79,5.72-4.94,8.57-2.01,4.99-4.04,11.22-5.62,16.39-1.16,3.77-2.04,7.64-2.77,11.51-.57.07-.35-.01-.44-.33-.33-1.04.67-4.28.99-5.56,1.45-5.9,3.5-11.62,5.56-17.33-.33-.37-.55.18-.69.4-.69,1.06-1.34,3.06-1.8,4.3-1.84,5.01-3.53,10.1-4.75,15.29-.45,1.92-1.33,3.72-1.03,5.85l.24-.39c1.56-.05,3.88-1.1,5.38-.11.23.15.57.2.05.39-.78.28-3.29.38-4.14.11-.07.36.17.59.45.75.34.19,3.06.84,3.64.94,1.51.27,3.11.26,4.63.49l1.32-15.12c.87-.3.04-.28.04-.85,0-.7.68-3.67.88-4.57,1-4.27,3.56-10.99,5.57-14.92,1.17-2.28,2.88-4.24,3.53-6.83ZM62.33,61.06l-.76.65-.22-.44c-.43,0-.86,1.45-.96,1.88-.37,1.54-.1,3.38-.36,4.69-.07.34-.42.65-.49,1.01-.33,1.63,2.22,4.89,2.58,6.6,2.34-.7,3.77-.54,4.9,1.74.11-.56,3.15-2.08,3.15-2.28-.31-.34-.47-1.32-.7-1.58-.45-.49-1.58-.22-1.47-1.59-.8.47-1.04.48-1.74,0,.74-1.08,1.52-2.59,1.08-3.92l-.43.43-.33-.65c-.76.88-1.9,1.96-2.56.38-.61-1.45.04-3.71-.41-5.29l.46-.53-1.08.02c-.05.42.17.75-.45.63.03-.67-.6-1.1-.22-1.74ZM27.59,72.31c.76-.98,1.34-2.21,2.23-3.11-1.55-2.31-.69-4.77-1.49-7.27-.85,1.18-1.87,2.33-2.66,3.55-1.33,2.04-5.36,11-5.61,13.13-.06.53.04.23.22.22,1.64-.08,1.21.57,2.61.54-.39.39.44,1.1.65.87.37-.4-.4-.71-.43-.81-.14-.59-.52-4.08-.34-4.43.85-.99,2.24-.23,3.24-.88.39-.25,1.26-1.38,1.59-1.81ZM87.61,90.92c-.04-3.16.06-6.33.01-9.49-.02-1.38-.12-1.35,0-2.81.15-1.81-.35-3.22-.61-4.87-.1-.62.37-1.79-.49-2.23.06,1.11-.09,2.28-.01,3.39.03.44.33.7.39,1.16.08.7-.39,2.11-.29,3.15.04.4.08.86.57.8v.21c-.68-.1-.41.58-.43,1.09l.65-.44c-.48,1.54-.02,3.11,0,4.67.02,1.38-.12,2.82-.1,4.15,0,.24-.02,1.2.31,1.2ZM60.58,119.03c.33.33,6.33.26,7.31.23,2.1-.06,4.67-.21,6.74-.45,1.15-.13,1.99-.16,2.17-1.5.4-3.08-.99-8.02-.93-11.28-.85-10.02,2.52-22.04-4.94-30.16-.08.87-1.12.9-1.84,1.43s-1.71,1.32-2.34,1.91c-.53.5-.5,1.17-1.38,1.34-.18.48.81.22.85.2.64-.31,1.38-.9,1.94-1.16.63-.29,2.13-.65,2.52-.88.25-.15.13-.44.14-.67l.87.54c-1.87,1.37-3.7,2.75-5.76,3.83-1.19,3.57-2.84,7-4.05,10.55-.11.32-.38,1.1-.38,1.36,0,.54.84.77.06,1.6-.87.92-.98.07-1.15,0-1.13-.41-3.17-.58-4.46-.95-1.91-.55-3.74-1.36-5.61-1.99-.3-.1-.82.09-.85.05-.1-.11.12-.48-.25-.39-.17.42.02,1-.06,1.36-.54,2.25-1.81,2.54.74,3.96,3.09,1.72,6.83,3.1,10.27,4.12,1.97.59,2.58,1.9,3.99-.49,2.12-3.6,4.16-8.25,5.45-12.21.09-.28.11-.58.1-.88,1.04-.2-.48,1.47.65,1.31l.46-2.38.63-.02-.44-.65h.65c.67,2.12.03,4.33-.7,6.38-1.65,4.59-3.86,7.18-6.15,11.08-.34.57.13,1.18-1.32,1.09-.86-.06-1.67-.9-2.71-.26l-.23-.41c.09.67-.14,1.63,0,2.25.05.19.44-.01.45.68.06,2.8-.58,5.91-.47,8.96.03.85.52,1.65,0,2.5ZM47.26,94.38l.82-1.94c-.11-.41-1.6-1.16-2.04-1.26-2.11-.51-2.95,1.88-5.07,1.49l6.29,1.71ZM86.23,97.62c.35-.83-.11-2.98.08-3.99l-.66-2.06c.35,2.41-.13,4.76,0,7.19.87.14.26-.66.24-.99,0-.11.31-.08.34-.15ZM87.39,105.52v-6.32c-.38-.05-.21.49-.22.76-.04,1.01.01,2.04,0,3.05,0,.41-.22.82-.22,1.3,0,.2.11,1.2.44,1.21ZM11.98,105.3l-6.76-1.31-.21,10.79c-.46,5.41-.39,10.97-1.75,16.23.63.12.35-.19.49-.48,2.45-5,3.74-12.31,5.55-17.78.83-2.5,1.96-4.92,2.67-7.46Z"></path><path class="cls-1" d="M58.4,87.76c0,.05.41.29.11.33h-.32c-.17-.62-.27-1.26-.35-1.9-.26-2.26.11-5.17-.12-7.55-.19-2-1.36-5.36-2.04-7.33-.75-2.16-4.19-1.79-5.45-3.7-.69.83-.8,1.54-1.87,2.05-2.06.96-4.81,1.09-6.89.18-.76-.33-2.4-1.66-3.06-1.75s-2.26.84-2.78,1.27c-1.07.87-2.77,4.41-3.33,5.82-1.32,3.33-2.16,7.31-3.32,10.74l-.22-.43-1.09.44c-.01-.26-.19-.49-.18-.76.01-1.4,1.48-6.82,1.97-8.44.46-1.52,2.46-6.45,3.36-7.56.5-.61,1.78-1.19,2.48-1.67.43-.3.29-.8.99-.74l4.68-2.32c-.5-1.39-1.32-2.96-1.68-4.39-.64-2.53-.89-6.1.12-8.49,1.51-3.54,4.15-5.31,7.97-4.19,4.11,1.21,5.59,5.48,4.9,9.43-.5,2.86-2.22,5.33-2.78,8.05.13.46,1.54,1.06,2.04,1.47,1.52,1.24,1.6,1.39,3.29,2.39,1.21.71,3.21,5.85,3.68,7.42.78,2.59,1.62,7.25,1.43,9.92-.1,1.41-1.01,2.62-.89,4.03h-.87c.13-1.03.8-1.93.88-2.93.06-.79,0-2.72-.08-3.58-.03-.35-.26-1.88-.37-1.99-.7-.69-.21.5-.21.54,0,1.88-.06,3.79,0,5.67ZM47.67,62.31c.26-.31,1.39-4.24,1.53-4.9.58-2.88,1-8.37-3.5-7.6-5.55.95-5.04,5.88-3.64,10.06.9,2.7,1.37,2.75,4.03,3.59l-.1-.42c.36-.14,1.5-.51,1.68-.73ZM48.54,66.33c-.58-.46-4.81-.18-5.86-.81l-1.72.77.43.43-.87.66c.77-.34,1.56.37,2.39.55,2.12.46,3.93.55,5.7-.87.24-.15.05-.63-.08-.73Z"></path><path class="cls-1" d="M45.51,14.23l.04,1.27.22-.87,1.3.65.35-.88c2.17.43,1.02,1.81.87,3.24-.18,1.8.17,3.67-.13,5.48,2.47.3,4.96-.5,7.41,0l-.87.76,1.22.86-.17,1.51-.33.33c-2.19.25-4.75.3-6.89-.24-.2-.05-.53-.48-.59-.39v17.29c-.09.41-1.25.35-1.1-.29-1.04,1.13-1.06-1.28-1.31-1.97l-.65.22-.32-14.83c-.36-.42-2.01.17-2.63.22-1.33.11-4.28.31-5.46.14-.26-.04-.76-.84-1.41-.57-.27-.26,1.08-1.67,1.38-1.88,2.33-1.63,5.22-1,7.89-1.59.32-.53-.08-1.35-.05-1.91.04-.86.37-2.03.33-3.02-.06-1.33-.83-2.6.08-3.79l.81.23Z"></path><path class="cls-1" d="M46.85,129.93c-1.55-.46-1.01-3.33-1.09-4.68-.03-.53-.3-1.02-.32-1.52-.04-1.19.25-2.86.24-4.11l-.35-3.41-.21,13.41-.45,1.19c-.4-.09-.41-.43-.44-.77-.36-3.94.47-9.52.59-13.54-.05-3.75-.12-7.52.33-11.27.05-.39.28-2.55.53-2.54l.98.77c-.16,1.43-.41,3.15-.45,4.57-.23,7.34.52,14.61.66,21.91Z"></path><path class="cls-1" d="M33.33,133.42c-.3.05-.33-.39-.38-.6-.38-1.79-.13-3.43-.28-5.17-.6-6.99-1.99-15.77-1.62-22.67.1-1.85.96-1.4,1.16.25.5,3.99.73,8.53,1.03,12.54.34,4.56.91,9.67.54,14.24-.04.55-.35.91-.45,1.42Z"></path><path class="cls-1" d="M52.09,104.43c.48.17.6.51.66.97.45,3.34-.13,8.22-.01,11.8.13,3.93.94,7.96,1.1,11.77.01.31,0,.86-.34.97-1.03.33-.71-1.4-.79-1.83-.58-3.31-.95-6.9-1.07-10.26s-.4-9.09,0-12.22c.06-.5.36-.74.45-1.19Z"></path><path class="cls-1" d="M47.94,86.12l-.65-.43v1.09c-.26.36-.96-2.69-1.03-3.01-.44-1.98-.76-4.04-.77-6.03,0-.57-.51-.88.28-1.1l-.45-1.63.65.22-.44-.65.68.3,1.39,6.01c.57,1.66.97,3.44,2.28,4.69.8.76,1.81,1.06,2.62,1.74l-1.2.55-.21-.44c-.55.58-1.19.54-1.93.66-.37-.73-1.28-1.11-1.24-1.97.07.08.61-.24.27.39l1.14,1.13.54-.65c-1.15-.49-1.75-1.82-2.22-2.9-.15-.34-.72-1.63-.78-1.84-.27-1.08.29-2.88-.7-3.76.13,1.97.42,6.13,1.74,7.63Z"></path><path class="cls-1" d="M40.53,86.34c-.51-.41.75-3.12.93-3.75.55-1.92.91-4.38,1.58-6.16.11-.3.45-1.06.75-1.2-.14,2.05-.48,4.12-.98,6.11-.26,1.02-.93,3.45-1.37,4.3-.2.38-.55.56-.92.71Z"></path></g></g></svg>